<svg width="52" height="52" fill="none" xmlns="http://www.w3.org/2000/svg"><g clip-path="url(#clip0)" fill="#29166F"><path d="M25.6 0C11.5 0 0 11.5 0 25.6c0 14.1 11.5 25.6 25.6 25.6 14.1 0 25.6-11.5 25.6-25.6C51.2 11.5 39.8 0 25.6 0zm0 50C12.2 50 1.3 39.1 1.3 25.6c0-13.5 10.9-24.3 24.3-24.3S50 12.2 50 25.6 39.1 50 25.6 50z"/><path d="M29.5 25.3c1.4 0 2.6-1.2 2.6-2.6 0-1.4-1.1-2.6-2.6-2.6-1.4 0-2.6 1.2-2.6 2.6 0 1.4 1.1 2.6 2.6 2.6zm0-4.1c.8 0 1.5.7 1.5 1.5s-.7 1.5-1.5 1.5-1.5-.7-1.5-1.5.6-1.5 1.5-1.5z"/><path d="M12.4 37.7h26.4V16.8H12.4v20.9zm25.2-19.6v13.8l-5.2-5.5-3.3 3.6c-.2.3-.2.6 0 .9.3.2.6.2.9 0l2.4-2.6 5.2 5.5v2.8H13.7v-2.3l7.9-8.4 8.1 8.5c.2.3.6.3.9 0 .3-.2.3-.6 0-.9l-9-9.5-7.9 8.4V18.1h23.9z"/></g><defs><clipPath id="clip0"><path fill="#fff" d="M0 0h51.3v51.3H0z"/></clipPath></defs></svg>