<svg width="52" height="52" fill="none" xmlns="http://www.w3.org/2000/svg"><g clip-path="url(#clip0)" fill="#29166F"><path d="M25.6 0C11.5 0 0 11.5 0 25.6c0 14.1 11.5 25.6 25.6 25.6 14.1 0 25.6-11.5 25.6-25.6C51.2 11.5 39.8 0 25.6 0zm0 50C12.2 50 1.3 39.1 1.3 25.6c0-13.5 10.9-24.3 24.3-24.3S50 12.2 50 25.6 39.1 50 25.6 50z"/><path d="M35.4 16.1H33c-.3 0-.6.3-.6.6s.3.6.6.6h2.4c.4 0 .7.3.7.7v4.2H15.2V18c0-.4.3-.7.7-.7h3v2c0 .3.3.6.6.6s.6-.3.6-.6v-5c0-.3-.3-.6-.6-.6s-.6.3-.6.6V16h-3c-1.1 0-1.9.9-1.9 1.9v17.6c0 1 .9 1.9 1.9 1.9h19.6c1 0 1.9-.9 1.9-1.9V18c-.1-1.1-.9-1.9-2-1.9zm0 20.1H15.8c-.4 0-.7-.3-.7-.7V23.4H36v12.2c.1.3-.2.6-.6.6z"/><path d="M27.5 17.3H30v2c0 .3.3.6.6.6s.6-.3.6-.6v-5c0-.3-.3-.6-.6-.6s-.6.4-.6.7v1.7h-2.5c-.3 0-.6.3-.6.6s.2.6.6.6zm-5.6 0h2.5v2c0 .3.3.6.6.6s.6-.3.6-.6v-5c0-.3-.3-.6-.6-.6s-.6.3-.6.6V16h-2.5c-.3 0-.6.3-.6.6s.2.7.6.7zM23 28.9h-1.6v1.6H23v-1.6zm-3.4 0H18v1.6h1.6v-1.6zm6.8 0h-1.6v1.6h1.6v-1.6zm3.4 0h-1.6v1.6h1.6v-1.6zm3.4 0h-1.6v1.6h1.6v-1.6zM23 25.5h-1.6v1.6H23v-1.6zm3.4 0h-1.6v1.6h1.6v-1.6zm3.4 0h-1.6v1.6h1.6v-1.6zm3.4 0h-1.6v1.6h1.6v-1.6zM23 32.3h-1.6v1.6H23v-1.6zm-3.4 0H18v1.6h1.6v-1.6zm6.8 0h-1.6v1.6h1.6v-1.6zm3.4 0h-1.6v1.6h1.6v-1.6z"/></g><defs><clipPath id="clip0"><path fill="#fff" d="M0 0h51.3v51.3H0z"/></clipPath></defs></svg>