<svg width="101" height="108" fill="none" xmlns="http://www.w3.org/2000/svg"><path d="M43.607 108h41.415V72.538l9.23-14.357 1.845 1.21L88.6 71.097c-.981 1.499 1.326 2.94 2.25 1.441l7.613-11.82c.75-1.154.404-2.71-.75-3.46l-1.961-1.326 3.692-5.709c.634-.98 1.096-1.96 1.326-2.825.519-1.73-.057-2.537-.634-2.883l-2.25-1.442c-.577-.346-1.5-.577-2.884.634-.692.577-1.384 1.442-2.019 2.422l-7.96 12.34v-47.86h-8.479V5.306h-7.44V0H0v97.39h7.44v5.305h8.48V108h27.687zm24.86-16.722c.981-4.267 2.423-5.881 19.382-32.175l1.846 1.269C71.698 88.28 71.813 88.683 68.468 91.278zm22.67-33.213l-1.846-1.268.865-1.327 1.903 1.211-.922 1.384zm4.095-10.494c.634-1.038 1.269-1.672 1.615-1.903l1.327.865c-.116.461-.404 1.268-1.096 2.306l-3.692 5.709-1.903-1.211 3.749-5.766zM31.09 105.232H18.573v-91.97H82.37V62.62C71.352 79.746 64.603 88.626 65.757 92.95l-.577.865h-9.575c-.75 0-1.327.577-1.327 1.326 0 .75.577 1.327 1.327 1.327h10.382c.923 0 1.096-.577 2.077-2.134 4.21-.692 10.037-11.013 14.363-17.76v28.658H31.09zm42.8-94.622H15.92v89.433h-5.826V7.957H73.89v2.653zM2.653 94.738V2.652H66.45v2.653H7.44v89.433H2.653z" fill="#fff"/><path d="M32.07 34.25h38.82c.75 0 1.327-.576 1.327-1.325 0-.75-.577-1.327-1.327-1.327H32.07c-.749 0-1.326.577-1.326 1.327s.577 1.326 1.327 1.326zm0 7.843h38.82c.75 0 1.327-.577 1.327-1.326 0-.75-.577-1.327-1.327-1.327H32.07c-.749 0-1.326.577-1.326 1.327s.577 1.326 1.327 1.326zm0 7.842h38.82c.75 0 1.327-.577 1.327-1.326 0-.75-.577-1.327-1.327-1.327H32.07c-.749 0-1.326.577-1.326 1.327 0 .692.577 1.326 1.327 1.326zm0 7.842h38.82c.75 0 1.327-.577 1.327-1.327s-.577-1.326-1.327-1.326H32.07c-.749 0-1.326.577-1.326 1.326 0 .692.577 1.327 1.327 1.327zm0 7.842h38.82c.75 0 1.327-.577 1.327-1.326 0-.75-.577-1.327-1.327-1.327H32.07c-.749 0-1.326.577-1.326 1.327 0 .691.577 1.326 1.327 1.326zm0 7.841h38.82c.75 0 1.327-.576 1.327-1.325 0-.75-.577-1.327-1.327-1.327H32.07c-.749 0-1.326.577-1.326 1.327 0 .691.577 1.326 1.327 1.326zm23.535-50.453H70.89c.75 0 1.327-.577 1.327-1.326 0-.75-.577-1.326-1.327-1.326H55.605c-.75 0-1.327.576-1.327 1.326 0 .75.577 1.326 1.327 1.326z" fill="#fff"/></svg>