<svg width="113" height="113" fill="none" xmlns="http://www.w3.org/2000/svg"><path d="M12.307 50.506c2.717-19.819 18.38-35.482 38.2-38.2m-.001 88.387C28.77 97.656 11.987 79.116 11.987 56.58m89.026 0c0 24.614-19.979 44.593-44.593 44.593m.16-89.186c22.536 0 41.236 16.783 44.113 38.52m-77.837.159c2.397-14.065 13.585-25.253 27.49-27.65m.16 67.128c-15.983-2.877-28.13-16.782-28.13-33.564m68.248 0c0 18.86-15.344 34.204-34.204 34.204m.16-68.408c16.782 0 30.847 12.147 33.564 28.13" stroke="#fff" stroke-width="3" stroke-miterlimit="10"/><path d="M27.011 56.58H2.078m109.004 0H85.989m-16.942 0H43.953M56.58 85.989v25.093m0-109.004V27.01m0 16.144v24.934" stroke="#fff" stroke-width="3" stroke-miterlimit="10" stroke-linecap="round"/></svg>