<svg width="52" height="52" fill="none" xmlns="http://www.w3.org/2000/svg"><g clip-path="url(#clip0)" fill="#fff"><path d="M25.6 51.3C11.5 51.3 0 39.8 0 25.6S11.5 0 25.6 0c14.1 0 25.6 11.5 25.6 25.6 0 14.1-11.4 25.7-25.6 25.7zm0-50C12.2 1.3 1.3 12.2 1.3 25.6S12.2 50 25.6 50 50 39.1 50 25.6C50 12.1 39.1 1.3 25.6 1.3z"/><path d="M25.6 17.8c-1.6 0-2.9-1.3-2.9-2.9 0-1.6 1.3-2.9 2.9-2.9 1.6 0 2.9 1.3 2.9 2.9 0 1.6-1.3 2.9-2.9 2.9zm0-4.6c-.9 0-1.7.7-1.7 1.7 0 .9.7 1.7 1.7 1.7.9 0 1.7-.7 1.7-1.7s-.8-1.7-1.7-1.7zm2.5 26.1c-.4 0-.6-.3-.6-.6l.2-9.4.4-.1c.7-.3 1.4-.8 1.3-1.2l-.7-6.8c-.1-.6-.6-1-1.2-1h-4c-.6 0-1.1.5-1.2 1l-.7 6.8c0 .5.6 1 1.3 1.2l.4.1.2 9.4c0 .3-.3.6-.6.6-.4 0-.6-.3-.6-.6l-.2-8.6c-1-.4-1.9-1.3-1.8-2.4l.7-6.8c.1-1.2 1.2-2.2 2.4-2.2h4c1.2 0 2.3 1 2.4 2.2l.7 6.8c.1 1.1-.8 1.9-1.8 2.4l-.2 8.6c.3.3 0 .6-.4.6zm5.3-19.2c-1.5 0-2.7-1.2-2.7-2.7 0-1.5 1.2-2.7 2.7-2.7 1.5 0 2.7 1.2 2.7 2.7 0 1.5-1.2 2.7-2.7 2.7zm0-4.1c-.8 0-1.4.6-1.4 1.4 0 .8.6 1.4 1.4 1.4.8 0 1.4-.6 1.4-1.4 0-.8-.6-1.4-1.4-1.4zm2.2 23.3c-.4 0-.6-.3-.6-.6l.2-8.4.4-.1c.6-.2 1.2-.7 1.2-1l-.7-6.2c0-.5-.5-.9-1-.9h-3.4c-.3 0-.6-.3-.6-.6s.3-.6.6-.6h3.4c1.1 0 2.1.9 2.2 2L38 29c.1 1-.7 1.7-1.6 2.2l-.2 7.6c0 .2-.2.5-.6.5zM17.9 20.1c-1.5 0-2.7-1.2-2.7-2.7 0-1.5 1.2-2.7 2.7-2.7 1.5 0 2.7 1.2 2.7 2.7 0 1.5-1.3 2.7-2.7 2.7zm0-4.1c-.8 0-1.4.6-1.4 1.4 0 .8.6 1.4 1.4 1.4.8 0 1.4-.6 1.4-1.4 0-.8-.7-1.4-1.4-1.4zm-2.3 23.3c-.3 0-.6-.3-.6-.6l-.2-7.6c-.8-.4-1.6-1.1-1.5-2.1l.6-6.1c.1-1.1 1.1-2 2.2-2h3.4c.3 0 .6.3.6.6s-.3.6-.6.6h-3.4c-.5 0-.9.4-1 .9l-.6 6.1c0 .4.6.8 1.2 1l.4.1.2 8.4c0 .4-.3.7-.7.7z"/></g><defs><clipPath id="clip0"><path fill="#fff" d="M0 0h51.3v51.3H0z"/></clipPath></defs></svg>