<svg width="52" height="52" fill="none" xmlns="http://www.w3.org/2000/svg"><g clip-path="url(#clip0)" fill="#fff"><path d="M25.6 0C11.5 0 0 11.5 0 25.6c0 14.1 11.5 25.6 25.6 25.6 14.1 0 25.6-11.5 25.6-25.6C51.2 11.5 39.8 0 25.6 0zm0 50C12.2 50 1.3 39.1 1.3 25.6c0-13.5 10.9-24.3 24.3-24.3S50 12.2 50 25.6 39.1 50 25.6 50z"/><path d="M14.9 24.8c-.3-.2-.7-.1-.9.2l-2.2 3.4L9.5 25c-.2-.3-.6-.4-.9-.2-.3.2-.4.6-.2.9l3.3 4.9 3.3-4.9c.2-.3.2-.7-.1-.9z"/><path d="M11.6 26.3c.3 0 .6-.3.6-.6 0-4.7 2.4-9 6.4-11.4.3-.2.4-.6.2-.9-.2-.3-.6-.4-.9-.2-4.4 2.7-7 7.3-7 12.5.1.3.4.6.7.6zm8.3-12.8c.1 0 .2 0 .3-.1 2-.9 4.2-1.3 6.3-1.1.3 0 .6-.2.7-.6 0-.3-.2-.6-.6-.7-2.4-.1-4.7.3-6.9 1.3-.3.1-.5.5-.3.8 0 .3.2.4.5.4zm8.3-.9c1.3.3 2.6.7 3.8 1.4h.2c.2 0 .4-.1.5-.3.2-.3.1-.7-.3-.8-1.3-.7-2.7-1.2-4.1-1.5-.3-.1-.7.2-.7.5s.2.6.6.7zm7.3 4.1c.1.1.3.2.5.2.1 0 .3-.1.4-.2.3-.2.3-.6 0-.9-.7-.8-1.6-1.5-2.4-2.2-.3-.2-.7-.1-.9.2-.2.3-.1.7.2.9.8.6 1.5 1.3 2.2 2zm4 3.9l-3.3 4.9c-.2.3-.1.7.2.9.1.1.2.1.3.1.2 0 .4-.1.5-.3l2.2-3.4 2.2 3.4c.2.3.6.4.9.2.3-.2.4-.6.2-.9l-3.2-4.9z"/><path d="M39.6 25c-.3 0-.6.3-.6.6 0 4.7-2.4 9-6.4 11.4-.3.2-.4.6-.2.9.1.2.3.3.5.3.1 0 .2 0 .3-.1 4.4-2.7 7-7.3 7-12.5 0-.3-.3-.6-.6-.6zm-8.5 12.8c-2 .9-4.1 1.3-6.3 1.1-.4 0-.6.2-.7.6 0 .3.2.6.6.7h.9c2.1 0 4.1-.4 6-1.3.3-.1.5-.5.3-.8-.1-.3-.5-.5-.8-.3zm-8.1.9c-1.3-.3-2.6-.7-3.8-1.4-.3-.2-.7-.1-.8.3-.2.3-.1.7.3.8 1.3.7 2.7 1.2 4.1 1.5h.1c.3 0 .6-.2.6-.5.1-.3-.1-.6-.5-.7zm-7.3-4.1c-.2-.3-.6-.3-.9 0-.3.2-.3.6 0 .9.7.8 1.6 1.5 2.4 2.2.1.1.2.1.4.1s.4-.1.5-.3c.2-.3.1-.7-.2-.9-.7-.6-1.5-1.3-2.2-2zm3.8-16.1h10.3v3.9c0 .7-1 1.2-1.8 1.6-.8.4-1.4.7-1.4 1.3v.6c0 .6.6 1 1.4 1.3.8.4 1.8.9 1.8 1.6v3.9h-.7c-.3-2.1-2.1-4.1-3.5-4.1-.6 0-1.3.4-2 1-.8.8-1.3 1.9-1.5 3h-.7v-3.9c0-.7 1-1.2 1.8-1.6.8-.4 1.4-.7 1.4-1.3v-.6c0-.6-.6-1-1.4-1.3-.8-.4-1.8-.9-1.8-1.6v-2.6c0-.3-.3-.6-.6-.6s-.6.3-.6.6v2.6c0 1.5 1.5 2.2 2.5 2.7.2.1.6.3.7.4v.3c-.1.1-.5.3-.7.4-1 .5-2.5 1.3-2.5 2.7v3.9h-.7c-.3 0-.6.3-.6.6s.3.6.6.6h12.4c.3 0 .6-.3.6-.6s-.3-.6-.6-.6H31v-3.9c0-1.5-1.5-2.2-2.5-2.7-.2-.1-.6-.3-.7-.4v-.3c.1-.1.5-.3.7-.4 1-.5 2.5-1.3 2.5-2.7v-3.9h.6c.3 0 .6-.3.6-.6s-.3-.6-.6-.6H19.5c-.3 0-.6.3-.6.6s.2.7.6.7zm4.9 12.1c.5-.5.9-.7 1.1-.7.6 0 2 1.2 2.3 2.8h-4.5c.2-.8.7-1.6 1.1-2.1z"/><path d="M25.6 23.6c.5 0 1.6-.6 2.4-1.1.3-.2.4-.6.2-.9-.2-.3-.6-.4-.9-.2-.7.4-1.5.9-1.7.9-.2 0-1-.5-1.7-.9-.3-.2-.7-.1-.9.2-.2.3-.1.7.2.9.8.5 1.8 1.1 2.4 1.1z"/></g><defs><clipPath id="clip0"><path fill="#fff" d="M0 0h51.3v51.3H0z"/></clipPath></defs></svg>