<svg width="52" height="52" fill="none" xmlns="http://www.w3.org/2000/svg"><g clip-path="url(#clip0)" fill="#fff"><path d="M25.6 0C11.5 0 0 11.5 0 25.6c0 14.1 11.5 25.6 25.6 25.6 14.1 0 25.6-11.5 25.6-25.6C51.2 11.5 39.8 0 25.6 0zm0 50C12.2 50 1.3 39.1 1.3 25.6c0-13.5 10.9-24.3 24.3-24.3S50 12.2 50 25.6 39.1 50 25.6 50z"/><path d="M29.8 25.1c0-.3-.3-.6-.6-.6H18.5c-.3 0-.6.3-.6.6s.3.6.6.6h10.7c.3 0 .6-.3.6-.6zm-1.5 3.3c0-.3-.3-.6-.6-.6h-9.2c-.3 0-.6.3-.6.6s.3.6.6.6h9.2c.4 0 .6-.2.6-.6zM43 19.2l-.2-.2c-.5-.5-1.4-.7-2-.4-.4.2-.9.5-1.3.7L38.3 18c-.2-.2-.5-.3-.8-.1-.1.1-2.8 1.8-5 3.9-.2.2-.2.6 0 .9.1.1.3.2.4.2.2 0 .3-.1.4-.2 1.6-1.6 3.5-2.9 4.3-3.5l.7.8c-3.6 2.3-6.6 5.4-8.8 9.2l-.2.4 2.1 2.1-1.8.9-.3-.3.3-1c.1-.3-.1-.7-.4-.8-.3-.1-.7.1-.8.4l-.5 1.7.3.3-.9.9c-.2.2-.2.6 0 .9.1.1.3.2.4.2.1 0 .3-.1.4-.2l.9-.9.3.3 3-1.5.4-.2c4.5-2.6 8.2-6.5 10.6-11.2.3-.6.2-1.5-.3-2zm-.8 1.5c-.8 1.6-1.7 3-2.8 4.4l-1.7-1.7c-.2-.2-.6-.2-.9 0-.3.2-.2.6 0 .9l1.8 1.8c-1.7 2-3.7 3.7-6 5l-1.7-1.7c2.5-4.1 6.1-7.5 10.4-9.6.1-.1.5 0 .7.2l.1.1c.1.1.2.5.1.6zm-20.8 14c.3-.3.8-.8 1.1-.8 0 0 .1 0 .2.1l.3.3c.8 1 1.1 1 2.4.8h.3c.3 0 .6-.4.5-.7 0-.3-.4-.6-.7-.5h-.3c-.8.1-.8.1-1.3-.4l-.3-.3c-.3-.4-.7-.5-1.2-.5-.4 0-.7.2-1 .4-.1-.6-.3-1-.5-1.2-.2-.2-.5-.2-.7-.1-.6.2-1.7 1.4-2.1 1.9-.2.3-.2.7.1.9.3.2.7.2.9-.1.4-.5.9-1 1.2-1.3 0 .3.1.8.1 1.2v1.8l1-1.5z"/><path d="M33.3 33.6c-.3 0-.6.3-.6.6v3.3H15V18.3l4.6-4.6h13v5c0 .3.3.6.6.6s.6-.3.6-.6v-6.2H19.1l-5.4 5.4v21h20.1v-4.5c.1-.5-.2-.8-.5-.8z"/><path d="M20.8 15.5c0-.3-.3-.6-.6-.6s-.6.3-.6.6v2.8h-2.8c-.3 0-.6.3-.6.6s.3.6.6.6h4v-4z"/></g><defs><clipPath id="clip0"><path fill="#fff" d="M0 0h51.3v51.3H0z"/></clipPath></defs></svg>