<svg width="52" height="52" fill="none" xmlns="http://www.w3.org/2000/svg"><g clip-path="url(#clip0)" fill="#29166F"><path d="M25.6 0C11.5 0 0 11.5 0 25.6c0 14.1 11.5 25.6 25.6 25.6 14.1 0 25.6-11.5 25.6-25.6C51.2 11.5 39.8 0 25.6 0zm0 50C12.2 50 1.3 39.1 1.3 25.6c0-13.5 10.9-24.3 24.3-24.3S50 12.2 50 25.6 39.1 50 25.6 50z"/><path d="M25.6 27.4c2.9 0 5.7-3.7 6.1-8 .2-2.4.2-4.9-1.2-6.5-1-1.1-2.6-1.7-4.9-1.7-2.3 0-3.9.5-4.9 1.7-1.4 1.6-1.4 4-1.2 6.5.4 4.4 3.2 8 6.1 8zm-4-13.6c.8-.8 2.1-1.3 4-1.3s3.2.4 4 1.3c.8.9 1 2.2 1 3.7-1.3-.4-2.4-1-3-1.4.2-.4.3-.7.3-.8.1-.3-.1-.7-.5-.7-.3-.1-.7.1-.7.5 0 .1-.6 2.3-4.1 2.3-.3 0-.6.3-.6.6s.3.6.6.6c2.2 0 3.5-.8 4.3-1.5.7.4 2 1.2 3.7 1.7v.5c-.3 3.7-2.6 6.9-4.9 6.9-2.3 0-4.5-3.2-4.9-6.9-.2-2.1-.3-4.3.8-5.5z"/><path d="M35.5 28.5s-2.5-.7-5-1.1l-.5-.1-1.8 3.7-2.2-2.4-.2-.2h-.6L23 31.1l-1.8-3.7-.5.1c-2.4.4-4.9 1.1-4.9 1.1-.1 0-2.6.5-3.1 4.5l-.5 6.3c0 .3.2.6.6.7.3 0 .6-.3.6-.6l.5-6.3c.4-3 2-3.3 2.1-3.4 0 0 2.2-.6 4.4-1l1.9 3.9c.2.3.5.4.8.3l.3-.3.6.7-.8 6c0 .3.2.7.5.7h.1c.3 0 .6-.2.6-.5l.6-4.9.4.5.4-.5.6 4.9c0 .3.3.5.6.5h.1c.3 0 .6-.4.5-.7l-.8-6 .6-.7.3.3c.3.2.7 0 .8-.3l1.9-3.9c2.2.4 4.4 1 4.4 1 .1 0 1.7.4 2.1 3.3l.5 6.3c0 .3.3.6.6.6s.6-.3.6-.7l-.5-6.4c-.1-3.9-2.5-4.4-2.6-4.4zm-9.9 4.6l-1.4-1.6 1.4-1.6 1.4 1.6-1.4 1.6z"/></g><defs><clipPath id="clip0"><path fill="#fff" d="M0 0h51.3v51.3H0z"/></clipPath></defs></svg>