<svg width="52" height="52" fill="none" xmlns="http://www.w3.org/2000/svg"><g clip-path="url(#clip0)" fill="#29166F"><path d="M25.6 0C11.5 0 0 11.5 0 25.6c0 14.1 11.5 25.6 25.6 25.6 14.1 0 25.6-11.5 25.6-25.6C51.2 11.5 39.8 0 25.6 0zm0 50C12.2 50 1.3 39.1 1.3 25.6c0-13.5 10.9-24.3 24.3-24.3S50 12.2 50 25.6 39.1 50 25.6 50z"/><path d="M36.9 19.6h-.3l-1.2 1.5-1.3-1.5h-.3c-1.7 0-2.9 1.2-2.9 2.9v1.3c0 .3.3.6.6.6s.6-.3.6-.6v-1.3c0-.9.5-1.5 1.4-1.6l1.9 2.1 1.8-2.1c.7.1 1.5.5 1.5 1.6v1.3c0 .3.3.6.6.6s.6-.3.6-.6v-1.3c.1-1.7-1.2-2.9-3-2.9zm-1.5-.3c1.4 0 2.6-1.2 2.6-2.6v-.5c0-1.4-1.1-2.6-2.6-2.6-1.4 0-2.6 1.2-2.6 2.6v.5c.1 1.4 1.2 2.6 2.6 2.6zm-1.3-3.1c0-.7.6-1.3 1.3-1.3.7 0 1.3.6 1.3 1.3v.5c0 .7-.6 1.3-1.3 1.3-.7 0-1.3-.6-1.3-1.3v-.5zm2.8 16.6h-.3l-1.2 1.5-1.3-1.5h-.3c-1.7 0-2.9 1.2-2.9 2.9V37c0 .3.3.6.6.6s.6-.3.6-.6v-1.3c0-.9.5-1.5 1.4-1.6l1.9 2.1 1.8-2.1c.7.1 1.5.5 1.5 1.6V37c0 .3.3.6.6.6s.7-.2.7-.6v-1.3c0-1.7-1.3-2.9-3.1-2.9zm1.1-2.9v-.5c0-1.4-1.1-2.6-2.6-2.6-1.4 0-2.6 1.2-2.6 2.6v.5c0 1.4 1.1 2.6 2.6 2.6 1.4-.1 2.6-1.2 2.6-2.6zm-3.9 0v-.5c0-.7.6-1.3 1.3-1.3.7 0 1.3.6 1.3 1.3v.5c0 .7-.6 1.3-1.3 1.3-.7 0-1.3-.6-1.3-1.3zm-4.5-12.6c.3 0 .6-.3.6-.6s-.3-.6-.6-.6h-3.1V25h-2.3c-.3 0-.6.3-.6.6s.3.6.6.6h2.3v8.9h3.1c.3 0 .6-.3.6-.6s-.3-.6-.6-.6h-1.8V17.3h1.8zm-9.9 8.5h-.3L17.6 28l-2-2.2h-.3c-2.5 0-4 1.2-4 3.4v3.5c0 .3.3.6.6.6s.6-.3.6-.6v-3.5c0-.5 0-2 2.4-2.1l2.6 2.9 2.5-3c1.2.1 2.6.5 2.6 2.1v3.5c0 .3.3.6.6.6s.6-.3.6-.6v-3.5c0-2-1.5-3.3-4.1-3.3zm-2.1-.6c1.7 0 3.1-1.4 3.1-3.1v-.9c0-1.7-1.4-3.1-3.1-3.1-1.7 0-3.1 1.4-3.1 3.1v.8c0 1.8 1.4 3.2 3.1 3.2zm-1.9-4.1c0-1 .8-1.9 1.8-1.9s1.8.8 1.8 1.9v.9c0 1-.8 1.9-1.8 1.9s-1.8-.8-1.8-1.9v-.9z"/><path d="M14.5 30.1c-.3 0-.6.3-.6.6v1.9c0 .3.3.6.6.6s.6-.3.6-.6v-1.9c0-.3-.2-.6-.6-.6zm6.1 0c-.3 0-.6.3-.6.6v1.9c0 .3.3.6.6.6s.6-.3.6-.6v-1.9c.1-.3-.2-.6-.6-.6z"/></g><defs><clipPath id="clip0"><path fill="#fff" d="M0 0h51.3v51.3H0z"/></clipPath></defs></svg>