<svg width="52" height="52" fill="none" xmlns="http://www.w3.org/2000/svg"><g clip-path="url(#clip0)" fill="#fff"><path d="M25.6 0C11.5 0 0 11.5 0 25.6c0 14.1 11.5 25.6 25.6 25.6 14.1 0 25.6-11.5 25.6-25.6C51.2 11.5 39.8 0 25.6 0zm0 50C12.2 50 1.3 39.1 1.3 25.6c0-13.5 10.9-24.3 24.3-24.3S50 12.2 50 25.6 39.1 50 25.6 50z"/><path d="M22.8 21.1h-6.5l-2.7 3v-3H8.7v12.1h4.8V30l.6-.6 2.6 3.8H23l-5.1-7.3 4.9-4.8zM20.6 32h-3.1l-3.1-4.4-2.1 2V32H10v-9.6h2.4v5.1l4.5-5.1h2.9l-3.5 3.4 4.3 6.2zm10.2-8.4h-3.4V27h3.2c.5 0 .7 0 1-.1.7-.2 1.2-.8 1.2-1.6 0-.4-.1-.7-.2-.9-.5-.8-1.4-.8-1.8-.8zm.5 2.1h-2.6v-.9h2.2c.5 0 .6.1.6.2s.1.1.1.3c0 .2-.2.3-.3.4zm7-4.6v12.1h5.1V21.1h-5.1zM42.2 32h-2.6v-9.6h2.6V32z"/><path d="M31.6 21.1h-8.1v12.1h5.1v-3.8h2.3c1.1 0 2.9 0 4.1-.8.8-.5 1.7-1.5 1.7-3.4 0-1-.3-1.7-.4-2.1-1-2-3.1-2-4.7-2zm2.7 6.4c-.9.6-2.3.6-3.4.6h-3.6V32h-2.6v-9.6h6.8c1.8 0 2.9.1 3.5 1.3.1.3.3.8.3 1.5.1 1.1-.2 1.8-1 2.3z"/></g><defs><clipPath id="clip0"><path fill="#fff" d="M0 0h51.3v51.3H0z"/></clipPath></defs></svg>