<svg width="39" height="35" fill="none" xmlns="http://www.w3.org/2000/svg"><path d="M22.347 20.486c1.218-.348 5.798-2.085 5.798-7.355 0 0 .116-1.332 1.565-1.332 0 0 1.623-.173 1.797 1.68 0 0 .406 3.532-.754 5.849h5.45c.232 0 1.101-.058 1.565.753.348.52.232 1.274.116 1.853-.116.52-1.74 8.86-1.74 8.86a2.102 2.102 0 01-2.086 1.621H22.174" stroke="#29166F" stroke-width="1.5" stroke-miterlimit="10"/><path d="M19.855 20.139h-4.696v13.203h4.696V20.14z" stroke="#29166F" stroke-width="1.5" stroke-miterlimit="10" stroke-linecap="round"/><path d="M10.463 4.33a.457.457 0 01-.464.462c-.232 0-.405-.173-.405-.463 0-.231.173-.405.405-.405.29-.058.464.174.464.405zm-4.173 0a.457.457 0 01-.465.462c-.232-.057-.405-.231-.405-.463 0-.231.173-.405.463-.405.174-.058.406.174.406.405zm8.405 0a.457.457 0 01-.464.463.457.457 0 01-.463-.464c0-.231.173-.463.463-.463.29 0 .464.232.464.463z" fill="#394553" stroke="#29166F" stroke-width="1.5" stroke-miterlimit="10"/><path d="M3.854 7.63H33.42" stroke="#29166F" stroke-width="1.5" stroke-miterlimit="10" stroke-linejoin="round"/><path d="M12.376 26.509h-9.16a1.93 1.93 0 01-1.913-1.911V2.939c0-1.042.87-1.91 1.914-1.91h30.899c1.043 0 1.913.868 1.913 1.91v13.725" stroke="#29166F" stroke-width="1.5" stroke-miterlimit="10"/></svg>