<svg width="31" height="41" fill="none" xmlns="http://www.w3.org/2000/svg"><path d="M10.134 35.55h10.301M15.25 3.562V1M27.4 9.142l2.1-2.094m-28.5 0l2.1 2.094" stroke="#29166F" stroke-width="1.5" stroke-miterlimit="10" stroke-linecap="round" stroke-linejoin="round"/><path d="M15.278 7.378c-6.298 0-11.414 4.973-11.414 11.09 0 2.562.709 4.711 2.057 6.365.473.51.96.964 1.432 1.405 1.6 1.488 3.1 2.907 3.56 5.91h8.716c.459-3.017 1.974-4.436 3.573-5.924.473-.44.96-.896 1.404-1.378 1.46-1.708 2.085-3.623 2.085-6.392 0-6.103-5.116-11.076-11.413-11.076z" stroke="#29166F" stroke-width="1.5" stroke-miterlimit="10"/><path d="M11.399 38.678h1.515C13.29 39.2 14.124 40 15.292 40c1.167 0 1.988-.799 2.377-1.322h1.515M9.925 17.903l3.865 5.29 7.118-8.43" stroke="#29166F" stroke-width="1.5" stroke-miterlimit="10" stroke-linecap="round" stroke-linejoin="round"/></svg>