<svg width="38" height="35" fill="none" xmlns="http://www.w3.org/2000/svg"><path d="M17.044 19.103v3.191s-.095.53 1.78 1.413M8.61 8.877s5.487.774 7.199-3.423c0 0 1.833 3.396 4.522 3.396" stroke="#29166F" stroke-width="1.5" stroke-miterlimit="10" stroke-linecap="round" stroke-linejoin="round"/><path d="M15.388 19.605c1.1-.258 1.656-.746 1.656-.746 1.847-1.318 3.002-5.446 3.341-8.339.516-4.264-.054-9.357-7.483-9.52h-.04c-7.415.163-7.986 5.27-7.47 9.52.34 2.893 1.494 7.021 3.341 8.339 0 0 .557.488 1.657.746m-1.643-.502v3.191s.23 1.358-7.85 3.423m24.051-.327l2.839 3.94 5.242-6.261" stroke="#29166F" stroke-width="1.5" stroke-miterlimit="10" stroke-linecap="round" stroke-linejoin="round"/><path d="M25.383 18.886a7.905 7.905 0 013.775-.95 7.946 7.946 0 017.945 7.944 7.946 7.946 0 01-7.945 7.944 7.946 7.946 0 01-7.944-7.944 7.94 7.94 0 011.643-4.848" stroke="#29166F" stroke-width="1.5" stroke-miterlimit="10" stroke-linecap="round" stroke-linejoin="round"/></svg>