<svg width="44" height="31" fill="none" xmlns="http://www.w3.org/2000/svg"><path d="M6.763 7.743C3.593 7.743 1 10.336 1 13.448s2.593 5.706 5.763 5.706h5.417V7.743H6.763zm29.277.518c1.267 1.326 2.016 3.17 2.016 5.13a7.519 7.519 0 01-2.074 5.186m3.169-13.139a11.6 11.6 0 013.17 7.952c0 3.055-1.21 5.879-3.112 7.953" stroke="#29166F" stroke-width="1.5" stroke-miterlimit="10"/><path d="M15.062 18.865s7.434.116 16.482 7.031V1c-8.299 6.916-16.482 7.03-16.482 7.03m-9.97 11.008L9.76 29.7h5.071l-2.766-10.431" stroke="#29166F" stroke-width="1.5" stroke-miterlimit="10" stroke-linejoin="round"/></svg>