<svg width="31" height="42" fill="none" xmlns="http://www.w3.org/2000/svg"><path d="M18.372 30.3h8.272m-8.272 3.797h5.345m-5.345-17.593h8.272m-8.272 3.797h5.345" stroke="#29166F" stroke-width="1.5" stroke-miterlimit="10"/><path d="M14.044 33.4v3.038H5.518v-8.48h5.472" stroke="#29166F" stroke-width="1.5" stroke-miterlimit="10" stroke-linecap="round" stroke-linejoin="round"/><path d="M8.254 30.933l2.227 2.468 4.963-6.329m-1.4-7.467v3.038H5.518v-8.48h5.472" stroke="#29166F" stroke-width="1.5" stroke-miterlimit="10" stroke-linecap="round" stroke-linejoin="round"/><path d="M8.254 17.137l2.227 2.531 4.963-6.391" stroke="#29166F" stroke-width="1.5" stroke-miterlimit="10" stroke-linecap="round" stroke-linejoin="round"/><path d="M25.689 6.379h2.482c1.145 0 2.036.886 2.036 2.025v30.502c0 1.14-.891 2.026-2.036 2.026H3.036C1.891 40.931 1 40.044 1 38.906V8.404c0-1.139.89-2.025 2.036-2.025h2.482" stroke="#29166F" stroke-width="1.5" stroke-miterlimit="10" stroke-linejoin="round"/><path d="M22.38 4.29h-3.436C18.88 2.457 17.417 1 15.572 1c-1.846 0-3.373 1.456-3.373 3.29H8.827v4.367h13.617V4.291h-.064z" stroke="#29166F" stroke-width="1.5" stroke-miterlimit="10" stroke-linecap="round"/></svg>