<svg width="26" height="26" fill="none" xmlns="http://www.w3.org/2000/svg"><path fill-rule="evenodd" clip-rule="evenodd" d="M19.092 14.85l2.121-2.122c2.334-2.333 2.334-6.152 0-8.485-2.333-2.334-6.152-2.334-8.485 0l-2.121 2.121c-.425.424-.425.99 0 1.414.424.424.99.424 1.414 0l2.121-2.121a4.012 4.012 0 015.657 0 4.012 4.012 0 010 5.657l-2.121 2.121c-.425.424-.425.99 0 1.414.424.425.99.425 1.414 0zm-6.364 6.363l2.121-2.121c.425-.424.425-.99 0-1.414-.424-.425-.99-.425-1.414 0l-2.121 2.121a4.012 4.012 0 01-5.657 0 4.012 4.012 0 010-5.657l2.121-2.121c.424-.424.424-.99 0-1.414-.424-.425-.99-.425-1.414 0l-2.121 2.12c-2.334 2.334-2.334 6.153 0 8.486 2.333 2.334 6.152 2.334 8.485 0zm-2.121-4.95l5.656-5.656c.425-.425.425-.99 0-1.415-.424-.424-.99-.424-1.414 0L9.192 14.85c-.424.425-.424.99 0 1.415.425.424.99.424 1.415 0z" fill="#fff"/></svg>