<svg width="52" height="52" viewBox="0 0 52 52" fill="none" xmlns="http://www.w3.org/2000/svg">
<g clip-path="url(#clip0)">
<path d="M25.6 0C11.5 0 0 11.5 0 25.6C0 39.7 11.5 51.2 25.6 51.2C39.7 51.2 51.2 39.7 51.2 25.6C51.2 11.5 39.8 0 25.6 0ZM25.6 50C12.2 50 1.3 39.1 1.3 25.6C1.3 12.1 12.2 1.3 25.6 1.3C39 1.3 50 12.2 50 25.6C50 39 39.1 50 25.6 50Z" fill="white"/>
<path d="M29.5 25.3001C30.9 25.3001 32.1 24.1001 32.1 22.7001C32.1 21.3001 31 20.1001 29.5 20.1001C28.1 20.1001 26.9 21.3001 26.9 22.7001C26.9 24.1001 28 25.3001 29.5 25.3001ZM29.5 21.2001C30.3 21.2001 31 21.9001 31 22.7001C31 23.5001 30.3 24.2001 29.5 24.2001C28.7 24.2001 28 23.5001 28 22.7001C28 21.9001 28.6 21.2001 29.5 21.2001Z" fill="white"/>
<path d="M12.4 37.6998H38.8V16.7998H12.4V37.6998ZM37.6 18.0998V31.8998L32.4 26.3998L29.1 29.9998C28.9 30.2998 28.9 30.5998 29.1 30.8998C29.4 31.0998 29.7 31.0998 30 30.8998L32.4 28.2998L37.6 33.7998V36.5998H13.7V34.2998L21.6 25.8998L29.7 34.3998C29.9 34.6998 30.3 34.6998 30.6 34.3998C30.9 34.1998 30.9 33.7998 30.6 33.4998L21.6 23.9998L13.7 32.3998V18.0998H37.6Z" fill="white"/>
</g>
<defs>
<clipPath id="clip0">
<rect width="51.3" height="51.3" fill="white"/>
</clipPath>
</defs>
</svg>
