<svg width="52" height="52" viewBox="0 0 52 52" fill="none" xmlns="http://www.w3.org/2000/svg">
<g clip-path="url(#clip0)">
<path d="M25.6 0C11.5 0 0 11.5 0 25.6C0 39.7 11.5 51.2 25.6 51.2C39.7 51.2 51.2 39.7 51.2 25.6C51.2 11.5 39.8 0 25.6 0ZM25.6 50C12.2 50 1.3 39.1 1.3 25.6C1.3 12.1 12.2 1.3 25.6 1.3C39 1.3 50 12.2 50 25.6C50 39 39.1 50 25.6 50Z" fill="white"/>
<path d="M35.4 16.1002H33C32.7 16.1002 32.4 16.4002 32.4 16.7002C32.4 17.0002 32.7 17.3002 33 17.3002H35.4C35.8 17.3002 36.1 17.6002 36.1 18.0002V22.2002H15.2V18.0002C15.2 17.6002 15.5 17.3002 15.9 17.3002H18.9V19.3002C18.9 19.6002 19.2 19.9002 19.5 19.9002C19.8 19.9002 20.1 19.6002 20.1 19.3002V14.3002C20.1 14.0002 19.8 13.7002 19.5 13.7002C19.2 13.7002 18.9 14.0002 18.9 14.3002V16.0002H15.9C14.8 16.0002 14 16.9002 14 17.9002V35.5002C14 36.5002 14.9 37.4002 15.9 37.4002H35.5C36.5 37.4002 37.4 36.5002 37.4 35.5002V18.0002C37.3 16.9002 36.5 16.1002 35.4 16.1002ZM35.4 36.2002H15.8C15.4 36.2002 15.1 35.9002 15.1 35.5002V23.4002H36V35.6002C36.1 35.9002 35.8 36.2002 35.4 36.2002Z" fill="white"/>
<path d="M27.5 17.3002H30V19.3002C30 19.6002 30.3 19.9002 30.6 19.9002C30.9 19.9002 31.2 19.6002 31.2 19.3002V14.3002C31.2 14.0002 30.9 13.7002 30.6 13.7002C30.3 13.7002 30 14.1002 30 14.4002V16.1002H27.5C27.2 16.1002 26.9 16.4002 26.9 16.7002C26.9 17.0002 27.1 17.3002 27.5 17.3002Z" fill="white"/>
<path d="M21.9 17.3002H24.4V19.3002C24.4 19.6002 24.7 19.9002 25 19.9002C25.3 19.9002 25.6 19.6002 25.6 19.3002V14.3002C25.6 14.0002 25.3 13.7002 25 13.7002C24.7 13.7002 24.4 14.0002 24.4 14.3002V16.0002H21.9C21.6 16.0002 21.3 16.3002 21.3 16.6002C21.3 16.9002 21.5 17.3002 21.9 17.3002Z" fill="white"/>
<path d="M23 28.8999H21.4V30.4999H23V28.8999Z" fill="white"/>
<path d="M19.6 28.8999H18V30.4999H19.6V28.8999Z" fill="white"/>
<path d="M26.4 28.8999H24.8V30.4999H26.4V28.8999Z" fill="white"/>
<path d="M29.7999 28.8999H28.2V30.4999H29.7999V28.8999Z" fill="white"/>
<path d="M33.2 28.8999H31.6V30.4999H33.2V28.8999Z" fill="white"/>
<path d="M23 25.5H21.4V27.1H23V25.5Z" fill="white"/>
<path d="M26.4 25.5H24.8V27.1H26.4V25.5Z" fill="white"/>
<path d="M29.7999 25.5H28.2V27.1H29.7999V25.5Z" fill="white"/>
<path d="M33.2 25.5H31.6V27.1H33.2V25.5Z" fill="white"/>
<path d="M23 32.2998H21.4V33.8998H23V32.2998Z" fill="white"/>
<path d="M19.6 32.2998H18V33.8998H19.6V32.2998Z" fill="white"/>
<path d="M26.4 32.2998H24.8V33.8998H26.4V32.2998Z" fill="white"/>
<path d="M29.7999 32.2998H28.2V33.8998H29.7999V32.2998Z" fill="white"/>
</g>
<defs>
<clipPath id="clip0">
<rect width="51.3" height="51.3" fill="white"/>
</clipPath>
</defs>
</svg>
