<svg width="52" height="52" viewBox="0 0 52 52" fill="none" xmlns="http://www.w3.org/2000/svg">
<g clip-path="url(#clip0)">
<path d="M25.6 0C11.5 0 0 11.5 0 25.6C0 39.7 11.5 51.2 25.6 51.2C39.7 51.2 51.2 39.7 51.2 25.6C51.2 11.5 39.8 0 25.6 0ZM25.6 50C12.2 50 1.3 39.1 1.3 25.6C1.3 12.1 12.2 1.3 25.6 1.3C39 1.3 50 12.2 50 25.6C50 39 39.1 50 25.6 50Z" fill="#29166F"/>
<path d="M22.8 21.1001H16.3L13.6 24.1001V21.1001H8.69995V33.2001H13.5V30.0001L14.1 29.4001L16.7 33.2001H23L17.9 25.9001L22.8 21.1001ZM20.6 32.0001H17.5L14.4 27.6001L12.3 29.6001V32.0001H9.99995V22.4001H12.4V27.5001L16.9 22.4001H19.8L16.3 25.8001L20.6 32.0001Z" fill="#29166F"/>
<path d="M30.8 23.6001H27.4V27.0001H30.6C31.1 27.0001 31.3 27.0001 31.6 26.9001C32.3 26.7001 32.8 26.1001 32.8 25.3001C32.8 24.9001 32.7 24.6001 32.6 24.4001C32.1 23.6001 31.2 23.6001 30.8 23.6001ZM31.3 25.7001C31.2 25.7001 31 25.7001 30.6 25.7001H28.7V24.8001H30.9C31.4 24.8001 31.5 24.9001 31.5 25.0001C31.5 25.1001 31.6 25.1001 31.6 25.3001C31.6 25.5001 31.4 25.6001 31.3 25.7001Z" fill="#29166F"/>
<path d="M38.3 21.1001V33.2001H43.4001V21.1001H38.3ZM42.2001 32.0001H39.6V22.4001H42.2001V32.0001Z" fill="#29166F"/>
<path d="M31.6 21.1001H23.5V33.2001H28.6V29.4001H30.9C32 29.4001 33.8 29.4001 35 28.6001C35.8 28.1001 36.7 27.1001 36.7 25.2001C36.7 24.2001 36.4 23.5001 36.3 23.1001C35.3 21.1001 33.2 21.1001 31.6 21.1001ZM34.3 27.5001C33.4 28.1001 32 28.1001 30.9 28.1001H27.3V32.0001H24.7V22.4001H31.5C33.3 22.4001 34.4 22.5001 35 23.7001C35.1 24.0001 35.3 24.5001 35.3 25.2001C35.4 26.3001 35.1 27.0001 34.3 27.5001Z" fill="#29166F"/>
</g>
<defs>
<clipPath id="clip0">
<rect width="51.3" height="51.3" fill="white"/>
</clipPath>
</defs>
</svg>
