<svg width="52" height="52" viewBox="0 0 52 52" fill="none" xmlns="http://www.w3.org/2000/svg">
<g clip-path="url(#clip0)">
<path d="M25.6 0C11.5 0 0 11.5 0 25.6C0 39.7 11.5 51.2 25.6 51.2C39.7 51.2 51.2 39.7 51.2 25.6C51.2 11.5 39.8 0 25.6 0ZM25.6 50C12.2 50 1.3 39.1 1.3 25.6C1.3 12.1 12.2 1.3 25.6 1.3C39 1.3 50 12.2 50 25.6C50 39 39.1 50 25.6 50Z" fill="white"/>
<path d="M25.5999 27.4002C28.4999 27.4002 31.2999 23.7002 31.6999 19.4002C31.8999 17.0002 31.8999 14.5002 30.4999 12.9002C29.4999 11.8002 27.8999 11.2002 25.5999 11.2002C23.2999 11.2002 21.6999 11.7002 20.6999 12.9002C19.2999 14.5002 19.2999 16.9002 19.4999 19.4002C19.8999 23.8002 22.6999 27.4002 25.5999 27.4002ZM21.5999 13.8002C22.3999 13.0002 23.6999 12.5002 25.5999 12.5002C27.4999 12.5002 28.7999 12.9002 29.5999 13.8002C30.3999 14.7002 30.5999 16.0002 30.5999 17.5002C29.2999 17.1002 28.1999 16.5002 27.5999 16.1002C27.7999 15.7002 27.8999 15.4002 27.8999 15.3002C27.9999 15.0002 27.7999 14.6002 27.3999 14.6002C27.0999 14.5002 26.6999 14.7002 26.6999 15.1002C26.6999 15.2002 26.0999 17.4002 22.5999 17.4002C22.2999 17.4002 21.9999 17.7002 21.9999 18.0002C21.9999 18.3002 22.2999 18.6002 22.5999 18.6002C24.7999 18.6002 26.0999 17.8002 26.8999 17.1002C27.5999 17.5002 28.8999 18.3002 30.5999 18.8002C30.5999 19.0002 30.5999 19.2002 30.5999 19.3002C30.2999 23.0002 27.9999 26.2002 25.6999 26.2002C23.3999 26.2002 21.1999 23.0002 20.7999 19.3002C20.5999 17.2002 20.4999 15.0002 21.5999 13.8002Z" fill="white"/>
<path d="M35.5 28.4998C35.5 28.4998 33 27.7998 30.5 27.3998L30 27.2998L28.2 30.9998L26 28.5998L25.8 28.3998H25.2L23 31.0998L21.2 27.3998L20.7 27.4998C18.3 27.8998 15.8 28.5998 15.8 28.5998C15.7 28.5998 13.2 29.0998 12.7 33.0998L12.2 39.3998C12.2 39.6998 12.4 39.9998 12.8 40.0998C13.1 40.0998 13.4 39.7998 13.4 39.4998L13.9 33.1998C14.3 30.1998 15.9 29.8998 16 29.7998C16 29.7998 18.2 29.1998 20.4 28.7998L22.3 32.6998C22.5 32.9998 22.8 33.0998 23.1 32.9998C23.2 32.8998 23.3 32.7998 23.4 32.6998L24 33.3998L23.2 39.3998C23.2 39.6998 23.4 40.0998 23.7 40.0998H23.8C24.1 40.0998 24.4 39.8998 24.4 39.5998L25 34.6998L25.4 35.1998L25.8 34.6998L26.4 39.5998C26.4 39.8998 26.7 40.0998 27 40.0998H27.1C27.4 40.0998 27.7 39.6998 27.6 39.3998L26.8 33.3998L27.4 32.6998C27.5 32.7998 27.6 32.8998 27.7 32.9998C28 33.1998 28.4 32.9998 28.5 32.6998L30.4 28.7998C32.6 29.1998 34.7999 29.7998 34.7999 29.7998C34.9 29.7998 36.5 30.1998 36.9 33.0998L37.4 39.3998C37.4 39.6998 37.7 39.9998 38 39.9998C38.2999 39.9998 38.5999 39.6998 38.5999 39.2998L38.0999 32.8998C37.9999 28.9998 35.6 28.4998 35.5 28.4998ZM25.6 33.0998L24.2 31.4998L25.6 29.8998L27 31.4998L25.6 33.0998Z" fill="white"/>
</g>
<defs>
<clipPath id="clip0">
<rect width="51.3" height="51.3" fill="white"/>
</clipPath>
</defs>
</svg>
