<svg width="52" height="52" viewBox="0 0 52 52" fill="none" xmlns="http://www.w3.org/2000/svg">
<g clip-path="url(#clip0)">
<path d="M25.6 0C11.5 0 0 11.5 0 25.6C0 39.7 11.5 51.2 25.6 51.2C39.7 51.2 51.2 39.7 51.2 25.6C51.2 11.5 39.8 0 25.6 0ZM25.6 50C12.2 50 1.3 39.1 1.3 25.6C1.3 12.1 12.2 1.3 25.6 1.3C39 1.3 50 12.2 50 25.6C50 39 39.1 50 25.6 50Z" fill="white"/>
<path d="M14.9 24.7999C14.5999 24.5999 14.2 24.6999 14 24.9999L11.8 28.3999L9.49995 24.9999C9.29995 24.6999 8.89995 24.5999 8.59995 24.7999C8.29995 24.9999 8.19995 25.3999 8.39995 25.6999L11.7 30.5999L15 25.6999C15.2 25.3999 15.2 24.9999 14.9 24.7999Z" fill="white"/>
<path d="M11.6 26.3002C11.9 26.3002 12.2 26.0002 12.2 25.7002C12.2 21.0002 14.6 16.7002 18.6 14.3002C18.9 14.1002 19 13.7002 18.8 13.4002C18.6 13.1002 18.2 13.0002 17.9 13.2002C13.5 15.9002 10.9 20.5002 10.9 25.7002C11 26.0002 11.3 26.3002 11.6 26.3002Z" fill="white"/>
<path d="M19.9 13.4998C20 13.4998 20.1 13.4998 20.2 13.3998C22.2 12.4998 24.4 12.0998 26.5 12.2998C26.8 12.2998 27.1 12.0998 27.2 11.6998C27.2 11.3998 27 11.0998 26.6 10.9998C24.2 10.8998 21.9 11.2998 19.7 12.2998C19.4 12.3998 19.2 12.7998 19.4 13.0998C19.4 13.3998 19.6 13.4998 19.9 13.4998Z" fill="white"/>
<path d="M28.2 12.6C29.5 12.9 30.8 13.3 32 14C32 14 32.1 14 32.2 14C32.4 14 32.6 13.9 32.7 13.7C32.9 13.4 32.8 13 32.4 12.9C31.1 12.2 29.7 11.7 28.3 11.4C28 11.3 27.6 11.6 27.6 11.9C27.6 12.2 27.8 12.5 28.2 12.6Z" fill="white"/>
<path d="M35.5 16.7001C35.6 16.8001 35.8 16.9001 36 16.9001C36.1 16.9001 36.3 16.8001 36.4 16.7001C36.7 16.5001 36.7 16.1001 36.4 15.8001C35.7 15.0001 34.8 14.3001 34 13.6001C33.7 13.4001 33.3 13.5001 33.1 13.8001C32.9 14.1001 33 14.5001 33.3 14.7001C34.1 15.3001 34.8 16.0001 35.5 16.7001Z" fill="white"/>
<path d="M39.5 20.6001L36.2 25.5001C36 25.8001 36.1 26.2001 36.4 26.4001C36.5 26.5001 36.6 26.5001 36.7 26.5001C36.9 26.5001 37.1 26.4001 37.2 26.2001L39.4 22.8001L41.6 26.2001C41.8 26.5001 42.2 26.6001 42.5 26.4001C42.8 26.2001 42.9 25.8001 42.7 25.5001L39.5 20.6001Z" fill="white"/>
<path d="M39.5999 25C39.2999 25 38.9999 25.3 38.9999 25.6C38.9999 30.3 36.5999 34.6 32.5999 37C32.2999 37.2 32.2 37.6 32.4 37.9C32.5 38.1 32.7 38.2 32.9 38.2C33 38.2 33.1 38.2 33.2 38.1C37.6 35.4 40.2 30.8 40.2 25.6C40.2 25.3 39.8999 25 39.5999 25Z" fill="white"/>
<path d="M31.1 37.8002C29.1 38.7002 27 39.1002 24.8 38.9002C24.4 38.9002 24.2 39.1002 24.1 39.5002C24.1 39.8002 24.3 40.1002 24.7 40.2002C25 40.2002 25.3 40.2002 25.6 40.2002C27.7 40.2002 29.7 39.8002 31.6 38.9002C31.9 38.8002 32.1 38.4002 31.9 38.1002C31.8 37.8002 31.4 37.6002 31.1 37.8002Z" fill="white"/>
<path d="M23 38.7002C21.7 38.4002 20.4 38.0002 19.2 37.3002C18.9 37.1002 18.5 37.2002 18.4 37.6002C18.2 37.9002 18.3 38.3002 18.7 38.4002C20 39.1002 21.4 39.6002 22.8 39.9002H22.9C23.2 39.9002 23.5 39.7002 23.5 39.4002C23.6 39.1002 23.4 38.8002 23 38.7002Z" fill="white"/>
<path d="M15.7 34.6C15.5 34.3 15.1 34.3 14.8 34.6C14.5 34.8 14.5 35.2 14.8 35.5C15.5 36.3 16.4 37 17.2 37.7C17.3 37.8 17.4 37.8 17.6 37.8C17.8 37.8 18 37.7 18.1 37.5C18.3 37.2 18.2 36.8 17.9 36.6C17.2 36 16.4 35.3 15.7 34.6Z" fill="white"/>
<path d="M19.5 18.5002H29.8V22.4002C29.8 23.1002 28.8 23.6002 28 24.0002C27.2 24.4002 26.6 24.7002 26.6 25.3002V25.9002C26.6 26.5002 27.2 26.9002 28 27.2002C28.8 27.6002 29.8 28.1002 29.8 28.8002V32.7002H29.1C28.8 30.6002 27 28.6002 25.6 28.6002C25 28.6002 24.3 29.0002 23.6 29.6002C22.8 30.4002 22.3 31.5002 22.1 32.6002H21.4V28.7002C21.4 28.0002 22.4 27.5002 23.2 27.1002C24 26.7002 24.6 26.4002 24.6 25.8002V25.2002C24.6 24.6002 24 24.2002 23.2 23.9002C22.4 23.5002 21.4 23.0002 21.4 22.3002V19.7002C21.4 19.4002 21.1 19.1002 20.8 19.1002C20.5 19.1002 20.2 19.4002 20.2 19.7002V22.3002C20.2 23.8002 21.7 24.5002 22.7 25.0002C22.9 25.1002 23.3 25.3002 23.4 25.4002V25.7002C23.3 25.8002 22.9 26.0002 22.7 26.1002C21.7 26.6002 20.2 27.4002 20.2 28.8002V32.7002H19.5C19.2 32.7002 18.9 33.0002 18.9 33.3002C18.9 33.6002 19.2 33.9002 19.5 33.9002H31.9C32.2 33.9002 32.5 33.6002 32.5 33.3002C32.5 33.0002 32.2 32.7002 31.9 32.7002H31V28.8002C31 27.3002 29.5 26.6002 28.5 26.1002C28.3 26.0002 27.9 25.8002 27.8 25.7002V25.4002C27.9 25.3002 28.3 25.1002 28.5 25.0002C29.5 24.5002 31 23.7002 31 22.3002V18.4002H31.6C31.9 18.4002 32.2 18.1002 32.2 17.8002C32.2 17.5002 31.9 17.2002 31.6 17.2002H19.5C19.2 17.2002 18.9 17.5002 18.9 17.8002C18.9 18.1002 19.1 18.5002 19.5 18.5002ZM24.4 30.6002C24.9 30.1002 25.3 29.9002 25.5 29.9002C26.1 29.9002 27.5 31.1002 27.8 32.7002H23.3C23.5 31.9002 24 31.1002 24.4 30.6002Z" fill="white"/>
<path d="M25.6 23.6C26.1 23.6 27.2 23 28 22.5C28.3 22.3 28.4 21.9 28.2 21.6C28 21.3 27.6 21.2 27.3 21.4C26.6 21.8 25.8 22.2999 25.6 22.2999C25.4 22.2999 24.6 21.8 23.9 21.4C23.6 21.2 23.2 21.3 23 21.6C22.8 21.9 22.9 22.3 23.2 22.5C24 23 25 23.6 25.6 23.6Z" fill="white"/>
</g>
<defs>
<clipPath id="clip0">
<rect width="51.3" height="51.3" fill="white"/>
</clipPath>
</defs>
</svg>
