<svg width="52" height="52" viewBox="0 0 52 52" fill="none" xmlns="http://www.w3.org/2000/svg">
<g clip-path="url(#clip0)">
<path d="M25.6 0C11.5 0 0 11.5 0 25.6C0 39.7 11.5 51.2 25.6 51.2C39.7 51.2 51.2 39.7 51.2 25.6C51.2 11.5 39.8 0 25.6 0ZM25.6 50C12.2 50 1.3 39.1 1.3 25.6C1.3 12.1 12.2 1.3 25.6 1.3C39 1.3 50 12.2 50 25.6C50 39 39.1 50 25.6 50Z" fill="white"/>
<path d="M29.8 25.1C29.8 24.8 29.5 24.5 29.2 24.5H18.5C18.2 24.5 17.9 24.8 17.9 25.1C17.9 25.4 18.2 25.7 18.5 25.7H29.2C29.5 25.7 29.8 25.4 29.8 25.1Z" fill="white"/>
<path d="M28.3 28.3998C28.3 28.0998 28 27.7998 27.7 27.7998H18.5C18.2 27.7998 17.9 28.0998 17.9 28.3998C17.9 28.6998 18.2 28.9998 18.5 28.9998H27.7C28.1 28.9998 28.3 28.7998 28.3 28.3998Z" fill="white"/>
<path d="M43 19.2L42.8 19C42.3 18.5 41.4 18.3 40.8 18.6C40.4 18.8 39.9 19.1 39.5 19.3L38.3 18C38.1 17.8 37.8 17.7 37.5 17.9C37.4 18 34.7 19.7 32.5 21.8C32.3 22 32.3 22.4 32.5 22.7C32.6 22.8 32.8 22.9 32.9 22.9C33.1 22.9 33.2 22.8 33.3 22.7C34.9 21.1 36.8 19.8 37.6 19.2L38.3 20C34.7 22.3 31.7 25.4 29.5 29.2L29.3 29.6L31.4 31.7L29.6 32.6L29.3 32.3L29.6 31.3C29.7 31 29.5 30.6 29.2 30.5C28.9 30.4 28.5 30.6 28.4 30.9L27.9 32.6L28.2 32.9L27.3 33.8C27.1 34 27.1 34.4 27.3 34.7C27.4 34.8 27.6 34.9 27.7 34.9C27.8 34.9 28 34.8 28.1 34.7L29 33.8L29.3 34.1L32.3 32.6L32.7 32.4C37.2 29.8 40.9 25.9 43.3 21.2C43.6 20.6 43.5 19.7 43 19.2ZM42.2 20.7C41.4 22.3 40.5 23.7 39.4 25.1L37.7 23.4C37.5 23.2 37.1 23.2 36.8 23.4C36.5 23.6 36.6 24 36.8 24.3L38.6 26.1C36.9 28.1 34.9 29.8 32.6 31.1L30.9 29.4C33.4 25.3 37 21.9 41.3 19.8C41.4 19.7 41.8 19.8 42 20L42.1 20.1C42.2 20.2 42.3 20.6 42.2 20.7Z" fill="white"/>
<path d="M21.4 34.7001C21.7 34.4001 22.2 33.9001 22.5 33.9001C22.5 33.9001 22.6 33.9001 22.7 34.0001L23 34.3001C23.8 35.3001 24.1 35.3001 25.4 35.1001H25.7C26 35.1001 26.3 34.7001 26.2 34.4001C26.2 34.1001 25.8 33.8001 25.5 33.9001H25.2C24.4 34.0001 24.4 34.0001 23.9 33.5001L23.6 33.2001C23.3 32.8001 22.9 32.7001 22.4 32.7001C22 32.7001 21.7 32.9001 21.4 33.1001C21.3 32.5001 21.1 32.1001 20.9 31.9001C20.7 31.7001 20.4 31.7001 20.2 31.8001C19.6 32.0001 18.5 33.2001 18.1 33.7001C17.9 34.0001 17.9 34.4001 18.2 34.6001C18.5 34.8001 18.9 34.8001 19.1 34.5001C19.5 34.0001 20 33.5001 20.3 33.2001C20.3 33.5001 20.4 34.0001 20.4 34.4001V36.2001L21.4 34.7001Z" fill="white"/>
<path d="M33.2999 33.6C33 33.6 32.7 33.9 32.7 34.2V37.5H15V18.3L19.6 13.7H32.5999V18.7C32.5999 19 32.9 19.3 33.2 19.3C33.5 19.3 33.7999 19 33.7999 18.7V12.5H19.1L13.7 17.9V38.9H33.7999V34.4C33.9 33.9 33.5999 33.6 33.2999 33.6Z" fill="white"/>
<path d="M20.7999 15.4999C20.7999 15.1999 20.5 14.8999 20.2 14.8999C19.9 14.8999 19.6 15.1999 19.6 15.4999V18.2999H16.7999C16.4999 18.2999 16.2 18.5999 16.2 18.8999C16.2 19.1999 16.4999 19.4999 16.7999 19.4999H20.7999V15.4999Z" fill="white"/>
</g>
<defs>
<clipPath id="clip0">
<rect width="51.3" height="51.3" fill="white"/>
</clipPath>
</defs>
</svg>
