<svg width="31" height="42" viewBox="0 0 31 42" fill="none" xmlns="http://www.w3.org/2000/svg">
<path d="M18.3715 30.2999H26.6436" stroke="#29166F" stroke-width="1.5" stroke-miterlimit="10"/>
<path d="M18.3715 34.0969H23.7165" stroke="#29166F" stroke-width="1.5" stroke-miterlimit="10"/>
<path d="M18.3715 16.5043H26.6436" stroke="#29166F" stroke-width="1.5" stroke-miterlimit="10"/>
<path d="M18.3715 20.3013H23.7165" stroke="#29166F" stroke-width="1.5" stroke-miterlimit="10"/>
<path d="M14.0444 33.4008V36.4384H5.51782V27.9585H10.9901" stroke="#29166F" stroke-width="1.5" stroke-miterlimit="10" stroke-linecap="round" stroke-linejoin="round"/>
<path d="M8.25403 30.9328L10.4811 33.4008L15.4444 27.0725" stroke="#29166F" stroke-width="1.5" stroke-miterlimit="10" stroke-linecap="round" stroke-linejoin="round"/>
<path d="M14.0444 19.6052V22.6427H5.51782V14.1628H10.9901" stroke="#29166F" stroke-width="1.5" stroke-miterlimit="10" stroke-linecap="round" stroke-linejoin="round"/>
<path d="M8.25403 17.1371L10.4811 19.6684L15.4444 13.2769" stroke="#29166F" stroke-width="1.5" stroke-miterlimit="10" stroke-linecap="round" stroke-linejoin="round"/>
<path d="M25.689 6.37903H28.1707C29.316 6.37903 30.2069 7.26499 30.2069 8.40408V38.9064C30.2069 40.0455 29.316 40.9315 28.1707 40.9315H3.03621C1.89084 40.9315 1 40.0455 1 38.9064V8.40408C1 7.26499 1.89084 6.37903 3.03621 6.37903H5.51784" stroke="#29166F" stroke-width="1.5" stroke-miterlimit="10" stroke-linejoin="round"/>
<path d="M22.3802 4.29071H18.9441C18.8804 2.45551 17.4169 1 15.5716 1C13.7263 1 12.1991 2.45551 12.1991 4.29071H8.82666V8.65723H22.4438V4.29071H22.3802Z" stroke="#29166F" stroke-width="1.5" stroke-miterlimit="10" stroke-linecap="round"/>
</svg>
