<svg width="39" height="35" viewBox="0 0 39 35" fill="none" xmlns="http://www.w3.org/2000/svg">
<path d="M22.3474 20.486C23.5648 20.1385 28.1446 18.4012 28.1446 13.1314C28.1446 13.1314 28.2606 11.7995 29.7099 11.7995C29.7099 11.7995 31.3331 11.6258 31.507 13.4789C31.507 13.4789 31.9128 17.0114 30.7534 19.3278C30.7534 19.3278 35.9709 19.3278 36.2028 19.3278C36.4347 19.3278 37.3042 19.2699 37.768 20.0806C38.1159 20.6018 37.9999 21.3546 37.884 21.9337C37.768 22.4549 36.1448 30.794 36.1448 30.794C35.9709 31.5468 35.2752 32.4154 34.0578 32.4154C32.8404 32.4154 22.1735 32.4154 22.1735 32.4154" stroke="#29166F" stroke-width="1.5" stroke-miterlimit="10"/>
<path d="M19.8546 20.1387H15.1588V33.3421H19.8546V20.1387Z" stroke="#29166F" stroke-width="1.5" stroke-miterlimit="10" stroke-linecap="round"/>
<path d="M10.4631 4.32916C10.4631 4.5608 10.2892 4.79244 9.99931 4.79244C9.76742 4.79244 9.59351 4.61871 9.59351 4.32916C9.59351 4.09752 9.76742 3.9238 9.99931 3.9238C10.2892 3.86589 10.4631 4.09752 10.4631 4.32916Z" fill="#394553" stroke="#29166F" stroke-width="1.5" stroke-miterlimit="10"/>
<path d="M6.28914 4.32916C6.28914 4.5608 6.11522 4.79244 5.82536 4.79244C5.59347 4.73453 5.41956 4.5608 5.41956 4.32916C5.41956 4.09752 5.59347 3.9238 5.88333 3.9238C6.05725 3.86589 6.28914 4.09752 6.28914 4.32916Z" fill="#394553" stroke="#29166F" stroke-width="1.5" stroke-miterlimit="10"/>
<path d="M14.695 4.32925C14.695 4.56089 14.5211 4.79253 14.2312 4.79253C13.9993 4.79253 13.7675 4.6188 13.7675 4.32925C13.7675 4.09761 13.9414 3.86597 14.2312 3.86597C14.5211 3.86597 14.695 4.09761 14.695 4.32925Z" fill="#394553" stroke="#29166F" stroke-width="1.5" stroke-miterlimit="10"/>
<path d="M3.85425 7.63013H33.4202" stroke="#29166F" stroke-width="1.5" stroke-miterlimit="10" stroke-linejoin="round"/>
<path d="M12.3762 26.5087H3.21655C2.17305 26.5087 1.30347 25.64 1.30347 24.5977V2.93935C1.30347 1.89697 2.17305 1.02832 3.21655 1.02832H34.1158C35.1593 1.02832 36.0289 1.89697 36.0289 2.93935V16.664" stroke="#29166F" stroke-width="1.5" stroke-miterlimit="10"/>
</svg>
