<svg width="31" height="41" viewBox="0 0 31 41" fill="none" xmlns="http://www.w3.org/2000/svg">
<path d="M10.1338 35.5503H20.4354" stroke="#29166F" stroke-width="1.5" stroke-miterlimit="10" stroke-linecap="round" stroke-linejoin="round"/>
<path d="M15.2499 3.56235V1" stroke="#29166F" stroke-width="1.5" stroke-miterlimit="10" stroke-linecap="round" stroke-linejoin="round"/>
<path d="M27.4004 9.14169L29.4996 7.04773" stroke="#29166F" stroke-width="1.5" stroke-miterlimit="10" stroke-linecap="round" stroke-linejoin="round"/>
<path d="M1 7.04773L3.09924 9.14169" stroke="#29166F" stroke-width="1.5" stroke-miterlimit="10" stroke-linecap="round" stroke-linejoin="round"/>
<path d="M15.2777 7.3783C8.97993 7.3783 3.86389 12.3514 3.86389 18.468C3.86389 21.0304 4.57291 23.1794 5.92143 24.8326C6.39411 25.3423 6.88069 25.7969 7.35336 26.2377C8.95213 27.7255 10.4536 29.1445 10.9123 32.1476H19.6291C20.0879 29.1307 21.6032 27.7117 23.202 26.2239C23.6746 25.7831 24.1612 25.3285 24.6061 24.8463C26.0658 23.1381 26.6914 21.2232 26.6914 18.4542C26.6914 12.3514 21.5754 7.3783 15.2777 7.3783Z" stroke="#29166F" stroke-width="1.5" stroke-miterlimit="10"/>
<path d="M11.3989 38.6775H12.9143C13.2896 39.201 14.1238 40 15.2916 40C16.4594 40 17.2796 39.201 17.6689 38.6775H19.1842" stroke="#29166F" stroke-width="1.5" stroke-miterlimit="10" stroke-linecap="round" stroke-linejoin="round"/>
<path d="M9.92529 17.9033L13.7901 23.1933L20.9081 14.7623" stroke="#29166F" stroke-width="1.5" stroke-miterlimit="10" stroke-linecap="round" stroke-linejoin="round"/>
</svg>
