<svg width="101" height="108" viewBox="0 0 101 108" fill="none" xmlns="http://www.w3.org/2000/svg">
<path d="M43.6071 108H85.0223V72.5958C85.0223 72.5382 85.0223 72.5382 85.0223 72.5382L94.2513 58.1805L96.0971 59.3913L88.5985 71.0966C87.6179 72.5958 89.9252 74.0374 90.8481 72.5382L98.462 60.7176C99.2119 59.5643 98.8658 58.0075 97.7122 57.2579L95.751 55.9317L99.4426 50.2232C100.077 49.2429 100.539 48.2627 100.769 47.3978C101.288 45.6679 100.712 44.8606 100.135 44.5147L97.8852 43.0731C97.3084 42.7272 96.3855 42.4965 95.0011 43.7074C94.309 44.284 93.6168 45.149 92.9823 46.1292L85.0223 58.4688V10.6097H76.5431V10.5521V5.30486H69.1022V0H0V97.3903H7.44089V102.695H15.92V108H31.0326H43.6071ZM68.4677 91.2782C69.4483 87.0112 70.8904 85.3967 87.8487 59.103L89.6945 60.3716C71.6979 88.2798 71.8132 88.6834 68.4677 91.2782ZM91.1365 58.0651L89.2907 56.7966L90.1559 55.4704L92.0594 56.6813L91.1365 58.0651ZM95.2319 47.5707C95.8664 46.5328 96.5008 45.8986 96.8469 45.6679L98.1736 46.5328C98.0582 46.9941 97.7698 47.8014 97.0777 48.8393L93.3861 54.5478L91.4826 53.3369L95.2319 47.5707ZM31.0902 105.232H18.5734V13.2621H82.3689V62.6204C71.3518 79.7459 64.6031 88.6257 65.7567 92.9503L65.1799 93.8153H55.6048C54.8549 93.8153 54.2781 94.3919 54.2781 95.1415C54.2781 95.8911 54.8549 96.4677 55.6048 96.4677H65.9874C66.9103 96.4677 67.0834 95.8911 68.064 94.3342C72.2747 93.6423 78.1005 83.3209 82.4266 76.5745V105.232H43.6648H31.0902ZM73.8898 10.6097H15.92V100.043H10.0942V7.95729H73.8898V10.4944C73.8898 10.5521 73.8898 10.5521 73.8898 10.6097ZM2.65334 94.7379V2.65243H66.4489V5.30486H7.44089V94.7379H2.65334Z" fill="white"/>
<path d="M32.0708 34.2508H70.8903C71.6402 34.2508 72.217 33.6742 72.217 32.9246C72.217 32.175 71.6402 31.5984 70.8903 31.5984H32.0708C31.321 31.5984 30.7441 32.175 30.7441 32.9246C30.7441 33.6742 31.321 34.2508 32.0708 34.2508Z" fill="white"/>
<path d="M32.0708 42.0929H70.8903C71.6402 42.0929 72.217 41.5162 72.217 40.7666C72.217 40.017 71.6402 39.4404 70.8903 39.4404H32.0708C31.321 39.4404 30.7441 40.017 30.7441 40.7666C30.7441 41.5162 31.321 42.0929 32.0708 42.0929Z" fill="white"/>
<path d="M32.0708 49.9349H70.8903C71.6402 49.9349 72.217 49.3583 72.217 48.6087C72.217 47.8591 71.6402 47.2825 70.8903 47.2825H32.0708C31.321 47.2825 30.7441 47.8591 30.7441 48.6087C30.7441 49.3006 31.321 49.9349 32.0708 49.9349Z" fill="white"/>
<path d="M32.0708 57.7767H70.8903C71.6402 57.7767 72.217 57.2001 72.217 56.4505C72.217 55.7009 71.6402 55.1243 70.8903 55.1243H32.0708C31.321 55.1243 30.7441 55.7009 30.7441 56.4505C30.7441 57.1424 31.321 57.7767 32.0708 57.7767Z" fill="white"/>
<path d="M32.0708 65.6188H70.8903C71.6402 65.6188 72.217 65.0421 72.217 64.2925C72.217 63.5429 71.6402 62.9663 70.8903 62.9663H32.0708C31.321 62.9663 30.7441 63.5429 30.7441 64.2925C30.7441 64.9845 31.321 65.6188 32.0708 65.6188Z" fill="white"/>
<path d="M32.0708 73.4608H70.8903C71.6402 73.4608 72.217 72.8842 72.217 72.1346C72.217 71.385 71.6402 70.8083 70.8903 70.8083H32.0708C31.321 70.8083 30.7441 71.385 30.7441 72.1346C30.7441 72.8265 31.321 73.4608 32.0708 73.4608Z" fill="white"/>
<path d="M55.6047 23.0069H70.8903C71.6402 23.0069 72.217 22.4303 72.217 21.6807C72.217 20.9311 71.6402 20.3545 70.8903 20.3545H55.6047C54.8549 20.3545 54.2781 20.9311 54.2781 21.6807C54.2781 22.4303 54.8549 23.0069 55.6047 23.0069Z" fill="white"/>
</svg>
