<svg width="113" height="113" viewBox="0 0 113 113" fill="none" xmlns="http://www.w3.org/2000/svg">
<path d="M12.3069 50.5063C15.024 30.6874 30.6874 15.024 50.5063 12.3069" stroke="white" stroke-width="3" stroke-miterlimit="10"/>
<path d="M50.5064 100.693C28.7695 97.6565 11.9873 79.1161 11.9873 56.5801" stroke="white" stroke-width="3" stroke-miterlimit="10"/>
<path d="M101.013 56.5801C101.013 81.1939 81.034 101.173 56.4202 101.173" stroke="white" stroke-width="3" stroke-miterlimit="10"/>
<path d="M56.5801 11.9873C79.1161 11.9873 97.8163 28.7695 100.693 50.5064" stroke="white" stroke-width="3" stroke-miterlimit="10"/>
<path d="M22.8557 50.6663C25.2532 36.6012 36.4413 25.4131 50.3465 23.0156" stroke="white" stroke-width="3" stroke-miterlimit="10"/>
<path d="M50.5063 90.1444C34.5233 87.2675 22.3762 73.3623 22.3762 56.5801" stroke="white" stroke-width="3" stroke-miterlimit="10"/>
<path d="M90.6238 56.5801C90.6238 75.44 75.2801 90.7837 56.4202 90.7837" stroke="white" stroke-width="3" stroke-miterlimit="10"/>
<path d="M56.5801 22.3762C73.3623 22.3762 87.4273 34.5233 90.1444 50.5063" stroke="white" stroke-width="3" stroke-miterlimit="10"/>
<path d="M27.0114 56.5801H2.07788" stroke="white" stroke-width="3" stroke-miterlimit="10" stroke-linecap="round"/>
<path d="M111.082 56.5801H85.9888" stroke="white" stroke-width="3" stroke-miterlimit="10" stroke-linecap="round"/>
<path d="M69.0467 56.5801H43.9534" stroke="white" stroke-width="3" stroke-miterlimit="10" stroke-linecap="round"/>
<path d="M56.5801 85.9888V111.082" stroke="white" stroke-width="3" stroke-miterlimit="10" stroke-linecap="round"/>
<path d="M56.5801 2.07788V27.0114" stroke="white" stroke-width="3" stroke-miterlimit="10" stroke-linecap="round"/>
<path d="M56.5801 43.1541V68.0876" stroke="white" stroke-width="3" stroke-miterlimit="10" stroke-linecap="round"/>
</svg>
