<svg width="52" height="52" viewBox="0 0 52 52" fill="none" xmlns="http://www.w3.org/2000/svg">
<g clip-path="url(#clip0)">
<path d="M25.6 0C11.5 0 0 11.5 0 25.6C0 39.7 11.5 51.2 25.6 51.2C39.7 51.2 51.2 39.7 51.2 25.6C51.2 11.5 39.8 0 25.6 0ZM25.6 50C12.2 50 1.3 39.1 1.3 25.6C1.3 12.1 12.2 1.3 25.6 1.3C39 1.3 50 12.2 50 25.6C50 39 39.1 50 25.6 50Z" fill="white"/>
<path d="M36.9 19.6001H36.6L35.4 21.1001L34.1 19.6001H33.8C32.1 19.6001 30.9 20.8001 30.9 22.5001V23.8001C30.9 24.1001 31.2 24.4001 31.5 24.4001C31.8 24.4001 32.1 24.1001 32.1 23.8001V22.5001C32.1 21.6001 32.6 21.0001 33.5 20.9001L35.4 23.0001L37.2 20.9001C37.9 21.0001 38.7 21.4001 38.7 22.5001V23.8001C38.7 24.1001 39 24.4001 39.3 24.4001C39.6 24.4001 39.9 24.1001 39.9 23.8001V22.5001C40 20.8001 38.7 19.6001 36.9 19.6001Z" fill="white"/>
<path d="M35.4001 19.3001C36.8001 19.3001 38 18.1001 38 16.7001V16.2001C38 14.8001 36.9001 13.6001 35.4001 13.6001C34.0001 13.6001 32.8 14.8001 32.8 16.2001V16.7001C32.9 18.1001 34.0001 19.3001 35.4001 19.3001ZM34.1 16.2001C34.1 15.5001 34.7001 14.9001 35.4001 14.9001C36.1001 14.9001 36.7001 15.5001 36.7001 16.2001V16.7001C36.7001 17.4001 36.1001 18.0001 35.4001 18.0001C34.7001 18.0001 34.1 17.4001 34.1 16.7001V16.2001Z" fill="white"/>
<path d="M36.9 32.7998H36.6L35.4 34.2998L34.1 32.7998H33.8C32.1 32.7998 30.9 33.9998 30.9 35.6998V36.9998C30.9 37.2998 31.2 37.5998 31.5 37.5998C31.8 37.5998 32.1 37.2998 32.1 36.9998V35.6998C32.1 34.7998 32.6 34.1998 33.5 34.0998L35.4 36.1998L37.2 34.0998C37.9 34.1998 38.7 34.5998 38.7 35.6998V36.9998C38.7 37.2998 39 37.5998 39.3 37.5998C39.6 37.5998 40 37.3998 40 36.9998V35.6998C40 33.9998 38.7 32.7998 36.9 32.7998Z" fill="white"/>
<path d="M38 29.8998V29.3998C38 27.9998 36.9001 26.7998 35.4001 26.7998C34.0001 26.7998 32.8 27.9998 32.8 29.3998V29.8998C32.8 31.2998 33.9001 32.4998 35.4001 32.4998C36.8001 32.3998 38 31.2998 38 29.8998ZM34.1 29.8998V29.3998C34.1 28.6998 34.7001 28.0998 35.4001 28.0998C36.1001 28.0998 36.7001 28.6998 36.7001 29.3998V29.8998C36.7001 30.5998 36.1001 31.1998 35.4001 31.1998C34.7001 31.1998 34.1 30.5998 34.1 29.8998Z" fill="white"/>
<path d="M29.6 17.3001C29.9 17.3001 30.2 17.0001 30.2 16.7001C30.2 16.4001 29.9 16.1001 29.6 16.1001H26.5V25.0001H24.2C23.9 25.0001 23.6 25.3001 23.6 25.6001C23.6 25.9001 23.9 26.2001 24.2 26.2001H26.5V35.1001H29.6C29.9 35.1001 30.2 34.8001 30.2 34.5001C30.2 34.2001 29.9 33.9001 29.6 33.9001H27.8V17.3001H29.6Z" fill="white"/>
<path d="M19.7 25.7998H19.4L17.6 27.9998L15.6 25.7998H15.3C12.8 25.7998 11.3 26.9998 11.3 29.1998V32.6998C11.3 32.9998 11.6 33.2998 11.9 33.2998C12.2 33.2998 12.5 32.9998 12.5 32.6998V29.1998C12.5 28.6998 12.5 27.1998 14.9 27.0998L17.5 29.9998L20 26.9998C21.2 27.0998 22.6 27.4998 22.6 29.0998V32.5998C22.6 32.8998 22.9 33.1998 23.2 33.1998C23.5 33.1998 23.8 32.8998 23.8 32.5998V29.0998C23.8 27.0998 22.3 25.7998 19.7 25.7998Z" fill="white"/>
<path d="M17.6 25.2001C19.3 25.2001 20.7 23.8001 20.7 22.1001V21.2001C20.7 19.5001 19.3 18.1001 17.6 18.1001C15.9 18.1001 14.5 19.5001 14.5 21.2001V22.0001C14.5 23.8001 15.9 25.2001 17.6 25.2001ZM15.7 21.1001C15.7 20.1001 16.5 19.2001 17.5 19.2001C18.5 19.2001 19.3 20.0001 19.3 21.1001V22.0001C19.3 23.0001 18.5 23.9001 17.5 23.9001C16.5 23.9001 15.7 23.1001 15.7 22.0001V21.1001Z" fill="white"/>
<path d="M14.5 30.1001C14.2 30.1001 13.9 30.4001 13.9 30.7001V32.6001C13.9 32.9001 14.2 33.2001 14.5 33.2001C14.8 33.2001 15.1 32.9001 15.1 32.6001V30.7001C15.1 30.4001 14.9 30.1001 14.5 30.1001Z" fill="white"/>
<path d="M20.6 30.1001C20.3 30.1001 20 30.4001 20 30.7001V32.6001C20 32.9001 20.3 33.2001 20.6 33.2001C20.9 33.2001 21.2 32.9001 21.2 32.6001V30.7001C21.3 30.4001 21 30.1001 20.6 30.1001Z" fill="white"/>
</g>
<defs>
<clipPath id="clip0">
<rect width="51.3" height="51.3" fill="white"/>
</clipPath>
</defs>
</svg>
