<svg width="52" height="52" viewBox="0 0 52 52" fill="none" xmlns="http://www.w3.org/2000/svg">
<g clip-path="url(#clip0)">
<path d="M25.6 51.3C11.5 51.3 0 39.8 0 25.6C0 11.4 11.5 0 25.6 0C39.7 0 51.2 11.5 51.2 25.6C51.2 39.7 39.8 51.3 25.6 51.3ZM25.6 1.3C12.2 1.3 1.3 12.2 1.3 25.6C1.3 39 12.2 50 25.6 50C39 50 50 39.1 50 25.6C50 12.1 39.1 1.3 25.6 1.3Z" fill="#29166F"/>
<path d="M25.6 17.8C24 17.8 22.7 16.5 22.7 14.9C22.7 13.3 24 12 25.6 12C27.2 12 28.5 13.3 28.5 14.9C28.5 16.5 27.2 17.8 25.6 17.8ZM25.6 13.2C24.7 13.2 23.9 13.9 23.9 14.9C23.9 15.8 24.6 16.6 25.6 16.6C26.5 16.6 27.2999 15.9 27.2999 14.9C27.2999 13.9 26.5 13.2 25.6 13.2Z" fill="#29166F"/>
<path d="M28.1 39.3002C27.7 39.3002 27.5 39.0002 27.5 38.7002L27.7 29.3002L28.1 29.2002C28.8 28.9002 29.5 28.4002 29.4 28.0002L28.7 21.2002C28.6 20.6002 28.1 20.2002 27.5 20.2002H23.5C22.9 20.2002 22.4 20.7002 22.3 21.2002L21.6 28.0002C21.6 28.5002 22.2 29.0002 22.9 29.2002L23.3 29.3002L23.5 38.7002C23.5 39.0002 23.2 39.3002 22.9 39.3002C22.5 39.3002 22.3 39.0002 22.3 38.7002L22.1 30.1002C21.1 29.7002 20.2 28.8002 20.3 27.7002L21 20.9002C21.1 19.7002 22.2 18.7002 23.4 18.7002H27.4C28.6 18.7002 29.7 19.7002 29.8 20.9002L30.5 27.7002C30.6 28.8002 29.7 29.6002 28.7 30.1002L28.5 38.7002C28.8 39.0002 28.5 39.3002 28.1 39.3002Z" fill="#29166F"/>
<path d="M33.4 20.1002C31.9 20.1002 30.7 18.9002 30.7 17.4002C30.7 15.9002 31.9 14.7002 33.4 14.7002C34.9 14.7002 36.0999 15.9002 36.0999 17.4002C36.0999 18.9002 34.9 20.1002 33.4 20.1002ZM33.4 16.0002C32.6 16.0002 32 16.6002 32 17.4002C32 18.2002 32.6 18.8002 33.4 18.8002C34.2 18.8002 34.7999 18.2002 34.7999 17.4002C34.7999 16.6002 34.2 16.0002 33.4 16.0002Z" fill="#29166F"/>
<path d="M35.6 39.3004C35.2 39.3004 35 39.0004 35 38.7004L35.2 30.3004L35.6 30.2004C36.2 30.0004 36.8 29.5004 36.8 29.2004L36.1 23.0004C36.1 22.5004 35.6 22.1004 35.1 22.1004H31.7C31.4 22.1004 31.1 21.8004 31.1 21.5004C31.1 21.2004 31.4 20.9004 31.7 20.9004H35.1C36.2 20.9004 37.2 21.8004 37.3 22.9004L38 29.0004C38.1 30.0004 37.3 30.7004 36.4 31.2004L36.2 38.8004C36.2 39.0004 36 39.3004 35.6 39.3004Z" fill="#29166F"/>
<path d="M17.9 20.1002C16.4 20.1002 15.2 18.9002 15.2 17.4002C15.2 15.9002 16.4 14.7002 17.9 14.7002C19.4 14.7002 20.6 15.9002 20.6 17.4002C20.6 18.9002 19.3 20.1002 17.9 20.1002ZM17.9 16.0002C17.1 16.0002 16.5 16.6002 16.5 17.4002C16.5 18.2002 17.1 18.8002 17.9 18.8002C18.7 18.8002 19.3 18.2002 19.3 17.4002C19.3 16.6002 18.6 16.0002 17.9 16.0002Z" fill="#29166F"/>
<path d="M15.6 39.3004C15.3 39.3004 15 39.0004 15 38.7004L14.8 31.1004C14 30.7004 13.2 30.0004 13.3 29.0004L13.9 22.9004C14 21.8004 15 20.9004 16.1 20.9004H19.5C19.8 20.9004 20.1 21.2004 20.1 21.5004C20.1 21.8004 19.8 22.1004 19.5 22.1004H16.1C15.6 22.1004 15.2 22.5004 15.1 23.0004L14.5 29.1004C14.5 29.5004 15.1 29.9004 15.7 30.1004L16.1 30.2004L16.3 38.6004C16.3 39.0004 16 39.3004 15.6 39.3004Z" fill="#29166F"/>
</g>
<defs>
<clipPath id="clip0">
<rect width="51.3" height="51.3" fill="white"/>
</clipPath>
</defs>
</svg>
