<svg width="44" height="31" viewBox="0 0 44 31" fill="none" xmlns="http://www.w3.org/2000/svg">
<path d="M6.76304 7.74268C3.59337 7.74268 1 10.336 1 13.4481C1 16.5601 3.59337 19.1535 6.76304 19.1535H12.1803V7.74268H6.76304Z" stroke="#29166F" stroke-width="1.5" stroke-miterlimit="10"/>
<path d="M36.0393 8.26147C37.3072 9.58697 38.0564 11.4311 38.0564 13.3906C38.0564 15.4076 37.2496 17.2518 35.9817 18.5773" stroke="#29166F" stroke-width="1.5" stroke-miterlimit="10"/>
<path d="M39.1514 5.4375C41.1108 7.5122 42.321 10.3361 42.321 13.3905C42.321 16.4449 41.1108 19.2688 39.209 21.3435" stroke="#29166F" stroke-width="1.5" stroke-miterlimit="10"/>
<path d="M15.0619 18.8654C15.0619 18.8654 22.4962 18.9807 31.5442 25.8963V1C23.2454 7.91565 15.0619 8.03091 15.0619 8.03091" stroke="#29166F" stroke-width="1.5" stroke-miterlimit="10" stroke-linejoin="round"/>
<path d="M5.0918 19.0383L9.75986 29.7H14.8313L12.0651 19.2689" stroke="#29166F" stroke-width="1.5" stroke-miterlimit="10" stroke-linejoin="round"/>
</svg>
