<svg width="38" height="35" viewBox="0 0 38 35" fill="none" xmlns="http://www.w3.org/2000/svg">
<path d="M17.0443 19.103C17.0443 20.108 17.0443 22.2945 17.0443 22.2945C17.0443 22.2945 16.9492 22.8241 18.8233 23.7069" stroke="#29166F" stroke-width="1.5" stroke-miterlimit="10" stroke-linecap="round" stroke-linejoin="round"/>
<path d="M8.61072 8.87667C8.61072 8.87667 14.0973 9.65077 15.8085 5.45435C15.8085 5.45435 17.6419 8.84951 20.3308 8.84951" stroke="#29166F" stroke-width="1.5" stroke-miterlimit="10" stroke-linecap="round" stroke-linejoin="round"/>
<path d="M15.3876 19.6055C16.4876 19.3475 17.0444 18.8586 17.0444 18.8586C18.8914 17.5412 20.0457 13.4127 20.3852 10.52C20.9013 6.25572 20.3309 1.16297 12.9023 1H12.8616C5.44652 1.16297 4.87613 6.2693 5.39219 10.52C5.73171 13.4127 6.88607 17.5412 8.73304 18.8586C8.73304 18.8586 9.28984 19.3475 10.3899 19.6055" stroke="#29166F" stroke-width="1.5" stroke-miterlimit="10" stroke-linecap="round" stroke-linejoin="round"/>
<path d="M8.7466 19.103C8.7466 20.108 8.7466 22.2945 8.7466 22.2945C8.7466 22.2945 8.97747 23.6525 0.896973 25.7168" stroke="#29166F" stroke-width="1.5" stroke-miterlimit="10" stroke-linecap="round" stroke-linejoin="round"/>
<path d="M24.9484 25.3908L27.7867 29.3292L33.0289 23.0685" stroke="#29166F" stroke-width="1.5" stroke-miterlimit="10" stroke-linecap="round" stroke-linejoin="round"/>
<path d="M25.3829 18.8857C26.5101 18.2746 27.8002 17.9351 29.1583 17.9351C33.5449 17.9351 37.103 21.4932 37.103 25.8797C37.103 30.2663 33.5449 33.8244 29.1583 33.8244C24.7718 33.8244 21.2136 30.2663 21.2136 25.8797C21.2136 24.0599 21.8248 22.3759 22.8569 21.0315" stroke="#29166F" stroke-width="1.5" stroke-miterlimit="10" stroke-linecap="round" stroke-linejoin="round"/>
</svg>
