<svg width="26" height="26" viewBox="0 0 26 26" fill="none" xmlns="http://www.w3.org/2000/svg">
<path fill-rule="evenodd" clip-rule="evenodd" d="M19.0919 14.8493L21.2132 12.7279C23.5467 10.3945 23.5467 6.57611 21.2132 4.24266C18.8798 1.90921 15.0614 1.90921 12.7279 4.24266L10.6066 6.36398C10.1823 6.78824 10.1823 7.35393 10.6066 7.77819C11.0309 8.20246 11.5966 8.20246 12.0208 7.77819L14.1421 5.65687C15.6978 4.10124 18.2434 4.10124 19.799 5.65687C21.3546 7.21251 21.3546 9.75809 19.799 11.3137L17.6777 13.435C17.2534 13.8593 17.2534 14.425 17.6777 14.8493C18.1019 15.2735 18.6676 15.2735 19.0919 14.8493ZM12.7279 21.2132L14.8492 19.0919C15.2735 18.6676 15.2735 18.102 14.8492 17.6777C14.425 17.2534 13.8593 17.2534 13.435 17.6777L11.3137 19.799C9.75807 21.3546 7.21249 21.3546 5.65685 19.799C4.10122 18.2434 4.10122 15.6978 5.65685 14.1422L7.77817 12.0208C8.20244 11.5966 8.20244 11.0309 7.77817 10.6066C7.35391 10.1824 6.78823 10.1824 6.36396 10.6066L4.24264 12.7279C1.90919 15.0614 1.90919 18.8798 4.24264 21.2132C6.57609 23.5467 10.3945 23.5467 12.7279 21.2132ZM10.6066 16.2635L16.2634 10.6066C16.6877 10.1824 16.6877 9.61667 16.2634 9.19241C15.8392 8.76814 15.2735 8.76814 14.8492 9.19241L9.19238 14.8493C8.76812 15.2735 8.76812 15.8392 9.19238 16.2635C9.61665 16.6877 10.1823 16.6877 10.6066 16.2635Z" fill="white"/>
</svg>
